<svg xmlns="http://www.w3.org/2000/svg" xmlns:xlink="http://www.w3.org/1999/xlink" width="1280" zoomAndPan="magnify" viewBox="0 0 960 540.000001" height="720" preserveAspectRatio="xMidYMid meet" version="1.0"><defs><clipPath id="3ff47c9964"><path d="M 20.546875 11.074219 L 457 11.074219 L 457 517 L 20.546875 517 Z M 20.546875 11.074219 " clip-rule="nonzero"/></clipPath><clipPath id="d9b3f7ad65"><path d="M 228 21 L 484.6875 21 L 484.6875 150 L 228 150 Z M 228 21 " clip-rule="nonzero"/></clipPath><clipPath id="a1a6f39496"><path d="M 500 21 L 887 21 L 887 502.914062 L 500 502.914062 Z M 500 21 " clip-rule="nonzero"/></clipPath></defs><g clip-path="url(#3ff47c9964)"><path fill="#02037c" d="M 99.761719 297.707031 C 98.273438 298.089844 97.609375 298.152344 97.101562 298.4375 C 77.488281 308.988281 63.703125 324.453125 57.335938 346.0625 C 56.480469 348.945312 56.003906 351.921875 55.371094 354.839844 C 55.148438 355.882812 55.085938 356.992188 54.769531 358.007812 C 54.261719 359.6875 52.296875 360.921875 50.808594 360.636719 C 49.222656 360.351562 47.765625 358.769531 47.636719 357.023438 C 47.574219 356.167969 47.542969 355.28125 47.765625 354.457031 C 48.875 350.210938 48.398438 345.933594 48.398438 341.65625 C 48.527344 298.597656 65.191406 263.359375 98.714844 236.207031 C 100.710938 234.589844 102.773438 233.070312 104.863281 231.453125 C 105.433594 226.226562 105.972656 221.089844 106.511719 215.992188 C 107.875 203.1875 108.984375 190.324219 110.597656 177.554688 C 117.222656 124.796875 142 81.863281 181.765625 47.167969 C 193.585938 36.871094 207.113281 29.582031 222.007812 24.796875 C 237.183594 19.949219 252.457031 15.671875 268.238281 13.453125 C 276.949219 12.25 285.726562 11.550781 294.566406 11.394531 C 312.28125 11.078125 329.738281 12.882812 347.007812 16.652344 C 348.433594 16.96875 349.890625 17.445312 351.191406 18.109375 C 352.394531 18.746094 353.09375 20.105469 352.648438 21.375 C 352.269531 22.453125 351.347656 23.847656 350.367188 24.164062 C 348.371094 24.828125 346.152344 24.957031 344.03125 25.175781 C 338.261719 25.746094 332.464844 26.0625 326.730469 26.824219 C 301.125 30.375 279.136719 41.148438 261.867188 60.601562 C 240.859375 84.304688 224.226562 110.761719 213.738281 140.769531 C 207.714844 157.972656 202.613281 175.527344 197.101562 192.921875 C 196.847656 193.714844 196.878906 194.601562 196.753906 195.773438 C 198.148438 195.839844 199.382812 196.089844 200.585938 195.964844 C 209.332031 194.949219 218.046875 193.554688 226.792969 192.859375 C 237.5 192.003906 248.242188 191.464844 258.984375 191.273438 C 271.878906 191.023438 284.777344 191.085938 297.671875 191.402344 C 314.878906 191.8125 332.050781 191.78125 349.226562 190.957031 C 364.277344 190.230469 379.136719 188.171875 393.648438 184.019531 C 411.203125 179.011719 427.140625 170.773438 441.589844 159.652344 C 443.617188 158.066406 445.648438 156.453125 447.769531 154.996094 C 448.816406 154.296875 450.050781 153.726562 451.253906 153.503906 C 453.855469 153 455.976562 154.804688 456.039062 157.402344 C 456.039062 158.257812 455.976562 159.144531 455.722656 159.9375 C 455.4375 160.953125 454.996094 161.964844 454.519531 162.917969 C 444.410156 183.605469 433.132812 203.570312 418.746094 221.695312 C 398.433594 247.234375 372.007812 262.1875 340.164062 268.242188 C 321.722656 271.757812 303.058594 272.582031 284.398438 272.992188 C 275.175781 273.183594 265.921875 272.867188 256.671875 272.929688 C 240.542969 273.058594 224.445312 273.183594 208.320312 273.53125 C 201.664062 273.691406 195.042969 274.386719 188.386719 274.925781 C 187.152344 275.019531 185.917969 275.496094 184.425781 275.84375 C 184.238281 277.398438 183.953125 278.855469 183.953125 280.3125 C 183.855469 287.410156 183.824219 294.507812 183.824219 301.574219 C 183.824219 321.566406 183.222656 341.53125 181.226562 361.429688 C 178.820312 385.414062 174.476562 409.054688 165.859375 431.707031 C 163.894531 436.90625 161.644531 442.070312 159.203125 447.078125 C 145.644531 474.929688 124.097656 493.875 94.820312 503.921875 C 79.167969 509.308594 63.132812 513.238281 46.5625 514.632812 C 41.871094 515.011719 37.214844 516.058594 32.523438 516.53125 C 29.355469 516.847656 26.125 516.914062 22.921875 516.753906 C 22.164062 516.722656 21.023438 515.582031 20.800781 514.726562 C 20.546875 513.871094 20.894531 512.445312 21.527344 511.875 C 22.734375 510.734375 24.316406 509.910156 25.808594 509.054688 C 41.777344 499.738281 55.339844 487.667969 66.808594 473.21875 C 77.328125 460.003906 83.601562 444.828125 87.214844 428.476562 C 90.542969 413.363281 92.757812 398.058594 93.835938 382.59375 C 94.820312 368.683594 95.292969 354.710938 96.054688 340.769531 C 96.148438 339.058594 95.992188 337.0625 96.816406 335.761719 C 98.84375 332.660156 98.84375 329.269531 99 325.847656 C 99.351562 318.113281 99.636719 310.382812 99.921875 302.652344 C 100.046875 301.226562 99.855469 299.769531 99.761719 297.707031 Z M 99.761719 297.707031 " fill-opacity="1" fill-rule="nonzero"/></g><g clip-path="url(#d9b3f7ad65)"><path fill="#02037c" d="M 371.566406 126.507812 C 362.4375 126.636719 352.203125 125.398438 341.96875 124.195312 C 332.371094 123.054688 322.769531 121.976562 313.136719 121.503906 C 296.691406 120.710938 280.59375 122.769531 265.066406 128.601562 C 254.484375 132.5625 244.949219 138.199219 236.929688 146.25 C 236.171875 147.011719 235.410156 147.769531 234.554688 148.402344 C 233.160156 149.480469 231.574219 149.511719 230.371094 148.59375 C 229.167969 147.707031 228.472656 145.867188 229.261719 144.570312 C 233.636719 137.34375 235.03125 128.917969 238.609375 121.34375 C 249.035156 99.164062 263.355469 80.183594 283.636719 66.117188 C 297.800781 56.261719 313.644531 50.527344 330.59375 47.863281 C 342.476562 45.996094 354.453125 45.109375 366.527344 45.140625 C 377.902344 45.171875 389.277344 45.140625 400.683594 45.042969 C 411.425781 44.980469 422.136719 44.347656 432.78125 42.792969 C 447.328125 40.671875 460.476562 35.410156 472.074219 26.347656 C 473.59375 25.144531 475.148438 24.003906 476.761719 22.925781 C 478.472656 21.753906 480.40625 21.4375 482.246094 22.484375 C 484.429688 23.71875 484.652344 25.875 484.367188 28.125 C 484.242188 28.980469 484.050781 29.804688 483.765625 30.628906 C 476.253906 54.167969 465.765625 76.128906 449.164062 94.726562 C 435.316406 110.285156 418.238281 120.363281 397.738281 124.542969 C 389.5 126.222656 381.164062 126.605469 371.566406 126.507812 Z M 371.566406 126.507812 " fill-opacity="1" fill-rule="nonzero"/></g><g clip-path="url(#a1a6f39496)"><path fill="#02037c" d="M 532.398438 291.128906 L 532.398438 23.261719 C 617.964844 21.839844 672.320312 11.082031 731.378906 105.710938 C 725.40625 101.527344 718.207031 98.195312 710.242188 95.546875 C 676.6875 84.398438 630.734375 85.042969 597.554688 86.386719 L 597.554688 234.652344 C 641.535156 203.90625 698.46875 190.527344 724.0625 131.382812 C 716.980469 165.191406 701.164062 183.851562 674.949219 206.742188 C 658.660156 220.964844 641.566406 233.691406 624.121094 246.425781 C 599.65625 264.285156 574.542969 282.359375 554.800781 305.566406 C 529.144531 335.71875 516.945312 369.652344 511.90625 408.609375 L 508.140625 437.738281 C 491.835938 378.105469 504.425781 327.117188 532.398438 291.128906 Z M 653.226562 21.226562 C 679.03125 22.417969 706.207031 25.847656 730.601562 33.953125 C 747.070312 39.425781 762.207031 46.953125 774.929688 57.179688 C 788.886719 68.40625 799.875 82.648438 806.585938 100.640625 C 817.113281 128.847656 812.761719 159.894531 798.476562 190.101562 C 784.601562 219.445312 760.859375 248.667969 732.9375 273.050781 C 664.378906 332.914062 546.765625 391.738281 533.375 502.9375 L 532.445312 471.25 C 528.722656 344.738281 572.125 313.054688 637.773438 265.128906 C 653.796875 253.429688 671.410156 240.570312 690.175781 224.183594 C 711.6875 205.402344 729.652344 183.574219 739.679688 162.363281 C 768.222656 102 698.191406 35.464844 653.222656 21.230469 Z M 612.617188 380.324219 C 604.847656 395.324219 599.761719 413.625 597.9375 437.78125 L 756.535156 437.78125 C 759.488281 437.78125 761.730469 437.730469 763.289062 437.628906 C 783.421875 436.324219 798.03125 428.957031 807.34375 418.320312 C 841.816406 378.921875 806.734375 282.070312 753.449219 319.109375 C 723.964844 339.605469 693.535156 374.070312 677.476562 417.609375 C 680.457031 346.585938 700.023438 336.398438 750.085938 292.683594 C 778.816406 267.597656 805.664062 235.886719 822.042969 201.246094 C 838.390625 166.671875 844.644531 128.054688 831.011719 91.523438 C 823.917969 72.515625 812.734375 56.171875 798.011719 42.660156 C 798.011719 42.660156 921.609375 107.75 819.074219 255.226562 C 828.960938 262.203125 838.742188 270.359375 847.671875 279.976562 C 868.054688 301.925781 883.644531 330.648438 886.113281 368.742188 C 886.351562 372.390625 886.46875 375.410156 886.46875 377.789062 C 886.46875 408.28125 876.394531 438.007812 856.210938 461.078125 C 836.011719 484.15625 806.339844 500.003906 767.363281 502.527344 C 763.203125 502.796875 759.585938 502.9375 756.535156 502.9375 L 539.277344 502.9375 C 539.277344 502.9375 550.660156 434.042969 612.617188 380.324219 Z M 612.617188 380.324219 " fill-opacity="1" fill-rule="evenodd"/></g></svg>