<svg xmlns="http://www.w3.org/2000/svg" xmlns:xlink="http://www.w3.org/1999/xlink" width="1280" zoomAndPan="magnify" viewBox="0 0 960 540.000001" height="720" preserveAspectRatio="xMidYMid meet" version="1.0"><defs><clipPath id="1ab3005e4d"><path d="M 1 0 L 465 0 L 465 538.253906 L 1 538.253906 Z M 1 0 " clip-rule="nonzero"/></clipPath><clipPath id="0e56f5b009"><path d="M 222 11 L 494.972656 11 L 494.972656 148 L 222 148 Z M 222 11 " clip-rule="nonzero"/></clipPath><clipPath id="60facda891"><path d="M 474 7 L 897 7 L 897 534.511719 L 474 534.511719 Z M 474 7 " clip-rule="nonzero"/></clipPath></defs><g clip-path="url(#1ab3005e4d)"><path fill="#ffffff" d="M 85.199219 305.074219 C 83.613281 305.480469 82.90625 305.546875 82.367188 305.851562 C 61.492188 317.082031 46.820312 333.539062 40.042969 356.539062 C 39.132812 359.605469 38.625 362.777344 37.953125 365.878906 C 37.714844 366.992188 37.648438 368.171875 37.3125 369.253906 C 36.769531 371.039062 34.679688 372.355469 33.09375 372.050781 C 31.410156 371.746094 29.859375 370.0625 29.722656 368.207031 C 29.65625 367.296875 29.621094 366.351562 29.859375 365.476562 C 31.039062 360.957031 30.53125 356.402344 30.53125 351.851562 C 30.667969 306.019531 48.40625 268.515625 84.085938 239.613281 C 86.210938 237.894531 88.402344 236.277344 90.628906 234.554688 C 91.238281 228.992188 91.808594 223.527344 92.382812 218.097656 C 93.832031 204.472656 95.015625 190.78125 96.734375 177.191406 C 103.78125 121.039062 130.15625 75.339844 172.480469 38.414062 C 185.058594 27.453125 199.460938 19.695312 215.308594 14.601562 C 231.464844 9.441406 247.71875 4.890625 264.515625 2.53125 C 273.789062 1.246094 283.128906 0.507812 292.539062 0.335938 C 311.390625 0 329.972656 1.921875 348.355469 5.9375 C 349.871094 6.273438 351.421875 6.777344 352.804688 7.488281 C 354.085938 8.160156 354.828125 9.613281 354.355469 10.960938 C 353.953125 12.105469 352.972656 13.589844 351.929688 13.929688 C 349.804688 14.636719 347.445312 14.769531 345.183594 15.007812 C 339.046875 15.613281 332.875 15.953125 326.769531 16.761719 C 299.519531 20.539062 276.117188 32.003906 257.734375 52.710938 C 235.375 77.9375 217.671875 106.097656 206.507812 138.035156 C 200.101562 156.347656 194.671875 175.03125 188.800781 193.546875 C 188.53125 194.390625 188.566406 195.332031 188.429688 196.582031 C 189.914062 196.648438 191.230469 196.917969 192.511719 196.785156 C 201.820312 195.703125 211.09375 194.222656 220.402344 193.480469 C 231.800781 192.566406 243.234375 191.996094 254.667969 191.792969 C 268.394531 191.523438 282.117188 191.589844 295.84375 191.925781 C 314.15625 192.367188 332.4375 192.332031 350.714844 191.457031 C 366.734375 190.679688 382.550781 188.488281 397.996094 184.070312 C 416.679688 178.742188 433.644531 169.972656 449.023438 158.136719 C 451.179688 156.449219 453.339844 154.730469 455.597656 153.179688 C 456.710938 152.4375 458.027344 151.828125 459.308594 151.59375 C 462.074219 151.054688 464.332031 152.976562 464.402344 155.742188 C 464.402344 156.652344 464.332031 157.597656 464.0625 158.4375 C 463.761719 159.519531 463.289062 160.597656 462.78125 161.609375 C 452.023438 183.632812 440.019531 204.878906 424.707031 224.167969 C 403.089844 251.351562 374.964844 267.269531 341.070312 273.710938 C 321.441406 277.453125 301.578125 278.332031 281.714844 278.769531 C 271.898438 278.972656 262.050781 278.632812 252.203125 278.703125 C 235.039062 278.835938 217.90625 278.972656 200.742188 279.34375 C 193.660156 279.511719 186.609375 280.253906 179.527344 280.824219 C 178.210938 280.925781 176.898438 281.433594 175.3125 281.804688 C 175.109375 283.457031 174.804688 285.007812 174.804688 286.558594 C 174.707031 294.113281 174.671875 301.667969 174.671875 309.1875 C 174.671875 330.46875 174.03125 351.714844 171.90625 372.894531 C 169.34375 398.425781 164.722656 423.582031 155.550781 447.695312 C 153.457031 453.226562 151.0625 458.722656 148.46875 464.050781 C 134.035156 493.695312 111.101562 513.863281 79.9375 524.554688 C 63.277344 530.289062 46.214844 534.46875 28.574219 535.953125 C 23.585938 536.359375 18.628906 537.472656 13.636719 537.976562 C 10.261719 538.316406 6.824219 538.382812 3.417969 538.214844 C 2.609375 538.179688 1.394531 536.964844 1.15625 536.054688 C 0.886719 535.144531 1.257812 533.625 1.933594 533.019531 C 3.214844 531.804688 4.902344 530.929688 6.488281 530.019531 C 23.484375 520.101562 37.917969 507.253906 50.125 491.875 C 61.324219 477.8125 68 461.65625 71.84375 444.257812 C 75.386719 428.167969 77.746094 411.878906 78.894531 395.421875 C 79.9375 380.617188 80.445312 365.746094 81.253906 350.90625 C 81.355469 349.085938 81.1875 346.960938 82.0625 345.578125 C 84.222656 342.273438 84.222656 338.664062 84.390625 335.023438 C 84.761719 326.792969 85.066406 318.5625 85.367188 310.335938 C 85.503906 308.816406 85.300781 307.265625 85.199219 305.074219 Z M 85.199219 305.074219 " fill-opacity="1" fill-rule="nonzero"/></g><g clip-path="url(#0e56f5b009)"><path fill="#ffffff" d="M 374.492188 122.859375 C 364.777344 122.996094 353.886719 121.679688 342.992188 120.398438 C 332.773438 119.183594 322.554688 118.035156 312.300781 117.53125 C 294.800781 116.6875 277.667969 118.878906 261.140625 125.085938 C 249.878906 129.300781 239.726562 135.304688 231.195312 143.871094 C 230.386719 144.679688 229.574219 145.488281 228.664062 146.164062 C 227.179688 147.308594 225.496094 147.34375 224.214844 146.367188 C 222.933594 145.421875 222.191406 143.464844 223.03125 142.082031 C 227.6875 134.394531 229.171875 125.421875 232.980469 117.363281 C 244.078125 93.753906 259.320312 73.554688 280.90625 58.578125 C 295.980469 48.089844 312.84375 41.988281 330.882812 39.15625 C 343.53125 37.164062 356.28125 36.21875 369.128906 36.253906 C 381.234375 36.289062 393.34375 36.253906 405.484375 36.152344 C 416.917969 36.085938 428.316406 35.410156 439.648438 33.757812 C 455.125 31.5 469.121094 25.902344 481.464844 16.253906 C 483.085938 14.972656 484.738281 13.757812 486.457031 12.613281 C 488.277344 11.367188 490.335938 11.027344 492.292969 12.140625 C 494.617188 13.457031 494.855469 15.75 494.550781 18.144531 C 494.417969 19.054688 494.214844 19.929688 493.910156 20.808594 C 485.917969 45.867188 474.753906 69.238281 457.082031 89.035156 C 442.34375 105.59375 424.167969 116.316406 402.347656 120.769531 C 393.578125 122.554688 384.710938 122.960938 374.492188 122.859375 Z M 374.492188 122.859375 " fill-opacity="1" fill-rule="nonzero"/></g><g clip-path="url(#60facda891)"><path fill="#ffffff" d="M 508.554688 302.789062 L 508.554688 9.597656 C 602.210938 8.042969 661.707031 -3.734375 726.351562 99.84375 C 719.8125 95.261719 711.933594 91.617188 703.210938 88.71875 C 666.488281 76.511719 616.1875 77.21875 579.871094 78.6875 L 579.871094 240.976562 C 628.007812 207.320312 690.328125 192.679688 718.34375 127.941406 C 710.589844 164.949219 693.277344 185.371094 664.585938 210.425781 C 646.753906 225.996094 628.042969 239.921875 608.949219 253.863281 C 582.175781 273.410156 554.6875 293.195312 533.074219 318.59375 C 504.996094 351.597656 491.640625 388.738281 486.125 431.378906 L 482.003906 463.265625 C 464.160156 397.992188 477.9375 342.183594 508.554688 302.789062 Z M 640.804688 7.371094 C 669.050781 8.671875 698.800781 12.425781 725.5 21.300781 C 743.523438 27.289062 760.089844 35.527344 774.015625 46.722656 C 789.296875 59.011719 801.320312 74.597656 808.667969 94.289062 C 820.191406 125.164062 815.425781 159.148438 799.789062 192.214844 C 784.605469 224.328125 758.621094 256.316406 728.054688 283.003906 C 653.015625 348.527344 524.28125 412.914062 509.625 534.628906 L 508.605469 499.945312 C 504.53125 361.472656 552.035156 326.789062 623.890625 274.332031 C 641.433594 261.527344 660.710938 247.453125 681.253906 229.515625 C 704.796875 208.960938 724.457031 185.070312 735.4375 161.847656 C 766.675781 95.78125 690.023438 22.953125 640.804688 7.375 Z M 596.359375 400.417969 C 587.855469 416.835938 582.289062 436.871094 580.292969 463.308594 L 753.886719 463.308594 C 757.113281 463.308594 759.570312 463.253906 761.277344 463.140625 C 783.316406 461.714844 799.304688 453.652344 809.496094 442.007812 C 847.226562 398.886719 808.828125 292.875 750.507812 333.417969 C 718.234375 355.847656 684.929688 393.574219 667.347656 441.230469 C 670.609375 363.492188 692.027344 352.339844 746.824219 304.496094 C 778.273438 277.035156 807.660156 242.328125 825.585938 204.40625 C 843.476562 166.566406 850.324219 124.300781 835.402344 84.3125 C 827.636719 63.507812 815.398438 45.617188 799.285156 30.832031 L 799.285156 30.828125 C 799.285156 30.828125 934.566406 102.074219 822.335938 263.496094 C 833.15625 271.132812 843.867188 280.058594 853.640625 290.582031 C 875.949219 314.609375 893.011719 346.046875 895.714844 387.742188 C 895.976562 391.738281 896.105469 395.039062 896.105469 397.644531 C 896.105469 431.023438 885.078125 463.558594 862.984375 488.808594 C 840.878906 514.070312 808.398438 531.414062 765.734375 534.179688 C 761.179688 534.472656 757.222656 534.625 753.886719 534.625 L 516.085938 534.625 C 516.085938 534.625 528.546875 459.21875 596.359375 400.417969 Z M 596.359375 400.417969 " fill-opacity="1" fill-rule="evenodd"/></g></svg>