<svg xmlns="http://www.w3.org/2000/svg" xmlns:xlink="http://www.w3.org/1999/xlink" width="1280" zoomAndPan="magnify" viewBox="0 0 960 540.000001" height="720" preserveAspectRatio="xMidYMid meet" version="1.0"><defs><clipPath id="dac6ab6ad9"><path d="M 284.066406 20.511719 L 788.835938 20.511719 L 788.835938 525.28125 L 284.066406 525.28125 Z M 284.066406 20.511719 " clip-rule="nonzero"/></clipPath><clipPath id="1f8ed62fcf"><path d="M 536.449219 20.511719 C 397.0625 20.511719 284.066406 133.507812 284.066406 272.894531 C 284.066406 412.28125 397.0625 525.28125 536.449219 525.28125 C 675.835938 525.28125 788.835938 412.28125 788.835938 272.894531 C 788.835938 133.507812 675.835938 20.511719 536.449219 20.511719 Z M 536.449219 20.511719 " clip-rule="nonzero"/></clipPath><clipPath id="2f310c962a"><path d="M 315.5 103 L 550 103 L 550 374.71875 L 315.5 374.71875 Z M 315.5 103 " clip-rule="nonzero"/></clipPath><clipPath id="79b5496bfb"><path d="M 427 108 L 564.789062 108 L 564.789062 178 L 427 178 Z M 427 108 " clip-rule="nonzero"/></clipPath></defs><g clip-path="url(#dac6ab6ad9)"><g clip-path="url(#1f8ed62fcf)"><path fill="#ffffff" d="M 284.066406 20.511719 L 788.835938 20.511719 L 788.835938 525.28125 L 284.066406 525.28125 Z M 284.066406 20.511719 " fill-opacity="1" fill-rule="nonzero"/></g></g><g clip-path="url(#2f310c962a)"><path fill="#02037c" d="M 358.023438 256.832031 C 357.222656 257.035156 356.867188 257.070312 356.59375 257.222656 C 346.066406 262.886719 338.667969 271.1875 335.246094 282.785156 C 334.789062 284.335938 334.535156 285.933594 334.191406 287.5 C 334.074219 288.058594 334.039062 288.65625 333.871094 289.199219 C 333.597656 290.101562 332.542969 290.765625 331.742188 290.609375 C 330.894531 290.457031 330.109375 289.605469 330.042969 288.671875 C 330.007812 288.210938 329.992188 287.738281 330.109375 287.292969 C 330.707031 285.015625 330.453125 282.71875 330.453125 280.421875 C 330.519531 257.308594 339.464844 238.394531 357.460938 223.816406 C 358.53125 222.949219 359.636719 222.132812 360.761719 221.265625 C 361.066406 218.460938 361.355469 215.707031 361.644531 212.964844 C 362.375 206.09375 362.972656 199.191406 363.839844 192.335938 C 367.394531 164.015625 380.695312 140.96875 402.039062 122.34375 C 408.382812 116.816406 415.648438 112.90625 423.640625 110.335938 C 431.789062 107.734375 439.988281 105.4375 448.457031 104.25 C 453.132812 103.601562 457.84375 103.226562 462.589844 103.140625 C 472.097656 102.972656 481.46875 103.941406 490.738281 105.964844 C 491.503906 106.136719 492.289062 106.390625 492.984375 106.75 C 493.632812 107.089844 494.003906 107.820312 493.765625 108.5 C 493.5625 109.078125 493.070312 109.828125 492.542969 109.996094 C 491.472656 110.355469 490.28125 110.421875 489.140625 110.542969 C 486.046875 110.847656 482.933594 111.015625 479.855469 111.425781 C 466.113281 113.332031 454.308594 119.113281 445.039062 129.558594 C 433.761719 142.277344 424.832031 156.480469 419.203125 172.589844 C 415.96875 181.824219 413.230469 191.246094 410.273438 200.585938 C 410.136719 201.007812 410.152344 201.484375 410.085938 202.117188 C 410.832031 202.148438 411.496094 202.285156 412.144531 202.21875 C 416.835938 201.671875 421.515625 200.925781 426.210938 200.550781 C 431.957031 200.089844 437.722656 199.800781 443.488281 199.699219 C 450.414062 199.5625 457.335938 199.597656 464.257812 199.769531 C 473.492188 199.988281 482.710938 199.972656 491.929688 199.53125 C 500.007812 199.140625 507.988281 198.035156 515.777344 195.804688 C 525.199219 193.117188 533.753906 188.695312 541.511719 182.726562 C 542.597656 181.875 543.6875 181.007812 544.828125 180.226562 C 545.386719 179.851562 546.050781 179.546875 546.699219 179.425781 C 548.09375 179.152344 549.230469 180.125 549.265625 181.519531 C 549.265625 181.976562 549.230469 182.453125 549.097656 182.878906 C 548.941406 183.421875 548.703125 183.96875 548.449219 184.476562 C 543.023438 195.585938 536.96875 206.300781 529.246094 216.027344 C 518.34375 229.738281 504.160156 237.765625 487.066406 241.015625 C 477.167969 242.902344 467.148438 243.34375 457.132812 243.566406 C 452.179688 243.667969 447.214844 243.496094 442.25 243.53125 C 433.589844 243.597656 424.949219 243.667969 416.292969 243.855469 C 412.722656 243.9375 409.167969 244.3125 405.59375 244.601562 C 404.933594 244.652344 404.269531 244.910156 403.46875 245.097656 C 403.367188 245.929688 403.214844 246.710938 403.214844 247.492188 C 403.164062 251.304688 403.144531 255.113281 403.144531 258.90625 C 403.144531 269.640625 402.824219 280.355469 401.75 291.035156 C 400.457031 303.910156 398.128906 316.601562 393.5 328.761719 C 392.449219 331.550781 391.238281 334.324219 389.929688 337.011719 C 382.652344 351.960938 371.085938 362.132812 355.367188 367.523438 C 346.964844 370.414062 338.359375 372.523438 329.464844 373.273438 C 326.949219 373.476562 324.445312 374.039062 321.929688 374.292969 C 320.230469 374.464844 318.496094 374.496094 316.777344 374.410156 C 316.367188 374.394531 315.753906 373.78125 315.636719 373.324219 C 315.5 372.863281 315.6875 372.097656 316.027344 371.792969 C 316.675781 371.179688 317.523438 370.738281 318.324219 370.277344 C 326.894531 365.277344 334.175781 358.796875 340.332031 351.042969 C 345.980469 343.949219 349.347656 335.800781 351.285156 327.027344 C 353.074219 318.914062 354.261719 310.699219 354.839844 302.398438 C 355.367188 294.929688 355.625 287.429688 356.03125 279.945312 C 356.082031 279.027344 356 277.957031 356.441406 277.257812 C 357.527344 275.59375 357.527344 273.773438 357.613281 271.933594 C 357.800781 267.785156 357.953125 263.636719 358.105469 259.484375 C 358.175781 258.71875 358.074219 257.9375 358.023438 256.832031 Z M 358.023438 256.832031 " fill-opacity="1" fill-rule="nonzero"/></g><g clip-path="url(#79b5496bfb)"><path fill="#02037c" d="M 503.921875 164.933594 C 499.023438 165.003906 493.527344 164.339844 488.035156 163.691406 C 482.882812 163.082031 477.726562 162.503906 472.558594 162.246094 C 463.730469 161.820312 455.089844 162.925781 446.753906 166.058594 C 441.074219 168.183594 435.957031 171.210938 431.652344 175.53125 C 431.242188 175.9375 430.835938 176.347656 430.375 176.6875 C 429.628906 177.265625 428.777344 177.28125 428.132812 176.789062 C 427.484375 176.3125 427.109375 175.328125 427.535156 174.628906 C 429.882812 170.75 430.632812 166.226562 432.554688 162.164062 C 438.148438 150.257812 445.835938 140.066406 456.722656 132.515625 C 464.324219 127.226562 472.828125 124.148438 481.929688 122.71875 C 488.308594 121.714844 494.738281 121.238281 501.21875 121.257812 C 507.324219 121.273438 513.429688 121.257812 519.550781 121.207031 C 525.316406 121.171875 531.066406 120.832031 536.78125 119.996094 C 544.589844 118.859375 551.648438 116.035156 557.871094 111.171875 C 558.6875 110.523438 559.523438 109.910156 560.390625 109.332031 C 561.308594 108.703125 562.347656 108.535156 563.332031 109.09375 C 564.507812 109.757812 564.625 110.914062 564.472656 112.125 C 564.402344 112.582031 564.300781 113.023438 564.148438 113.464844 C 560.117188 126.105469 554.488281 137.890625 545.574219 147.875 C 538.144531 156.226562 528.976562 161.636719 517.96875 163.878906 C 513.546875 164.78125 509.074219 164.984375 503.921875 164.933594 Z M 503.921875 164.933594 " fill-opacity="1" fill-rule="nonzero"/></g><path fill="#02037c" d="M 569.921875 253.296875 L 569.921875 109.515625 C 615.847656 108.753906 645.027344 102.976562 676.726562 153.773438 C 673.523438 151.527344 669.65625 149.738281 665.382812 148.316406 C 647.371094 142.332031 622.703125 142.675781 604.894531 143.398438 L 604.894531 222.984375 C 628.5 206.480469 659.0625 199.300781 672.800781 167.554688 C 669 185.699219 660.507812 195.714844 646.4375 208.003906 C 637.695312 215.636719 628.519531 222.46875 619.152344 229.304688 C 606.023438 238.890625 592.542969 248.59375 581.945312 261.046875 C 568.175781 277.234375 561.625 295.449219 558.921875 316.359375 L 556.898438 331.996094 C 548.148438 299.984375 554.90625 272.617188 569.921875 253.296875 Z M 634.777344 108.425781 C 648.628906 109.0625 663.214844 110.902344 676.3125 115.253906 C 685.148438 118.191406 693.273438 122.230469 700.101562 127.722656 C 707.597656 133.75 713.492188 141.390625 717.097656 151.050781 C 722.746094 166.191406 720.410156 182.855469 712.742188 199.070312 C 705.296875 214.820312 692.550781 230.507812 677.5625 243.59375 C 640.765625 275.726562 577.632812 307.304688 570.445312 366.992188 L 569.945312 349.984375 C 567.949219 282.074219 591.242188 265.070312 626.480469 239.34375 C 635.082031 233.0625 644.539062 226.160156 654.613281 217.363281 C 666.15625 207.285156 675.800781 195.566406 681.183594 184.179688 C 696.503906 151.78125 658.914062 116.066406 634.777344 108.425781 Z M 612.980469 301.175781 C 608.808594 309.226562 606.078125 319.050781 605.101562 332.015625 L 690.230469 332.015625 C 691.816406 332.015625 693.019531 331.988281 693.855469 331.933594 C 704.664062 331.234375 712.503906 327.28125 717.503906 321.570312 C 736.007812 300.425781 717.175781 248.4375 688.574219 268.320312 C 672.746094 279.320312 656.414062 297.820312 647.792969 321.1875 C 649.394531 283.066406 659.894531 277.597656 686.769531 254.132812 C 702.191406 240.667969 716.601562 223.648438 725.394531 205.050781 C 734.167969 186.496094 737.523438 165.765625 730.207031 146.15625 C 726.398438 135.953125 720.398438 127.179688 712.496094 119.929688 C 712.496094 119.929688 778.835938 154.867188 723.796875 234.027344 C 729.105469 237.773438 734.355469 242.152344 739.152344 247.3125 C 750.089844 259.09375 758.460938 274.511719 759.785156 294.960938 C 759.914062 296.917969 759.976562 298.539062 759.976562 299.816406 C 759.976562 316.183594 754.566406 332.140625 743.734375 344.523438 C 732.890625 356.910156 716.964844 365.414062 696.042969 366.773438 C 693.808594 366.917969 691.867188 366.992188 690.230469 366.992188 L 573.613281 366.992188 C 573.613281 366.992188 579.722656 330.011719 612.980469 301.175781 Z M 612.980469 301.175781 " fill-opacity="1" fill-rule="evenodd"/></svg>